<?xml version="1.0" encoding="UTF-8"?>
<svg version="1.1" xmlns="http://www.w3.org/2000/svg" width="137" height="176">
<path d="M0 0 C36.3 0 72.6 0 110 0 C110 9.9 110 19.8 110 30 C107.586875 31.299375 105.17375 32.59875 102.6875 33.9375 C101.93170654 34.34605225 101.17591309 34.75460449 100.3972168 35.17553711 C99.79562744 35.4978833 99.19403809 35.82022949 98.57421875 36.15234375 C97.96151123 36.48226318 97.34880371 36.81218262 96.7175293 37.15209961 C95 38 95 38 92 39 C92 39.66 92 40.32 92 41 C91.319375 41.350625 90.63875 41.70125 89.9375 42.0625 C77.97210093 49.95457173 72.75329678 65.65155592 70 79 C69.50976603 82.35336513 69.20837547 85.61389869 69 89 C63.39 89 57.78 89 52 89 C53.00172684 69.2993722 56.19151221 53.85690788 69 38 C69.56203125 37.27425781 70.1240625 36.54851562 70.703125 35.80078125 C74.46995418 31.11126916 74.46995418 31.11126916 77.046875 30.5703125 C77.69140625 30.38210937 78.3359375 30.19390625 79 30 C79.29777344 29.39542969 79.59554687 28.79085937 79.90234375 28.16796875 C81.45905653 25.0933225 83.63754313 24.07052493 86.5625 22.3125 C89.96660278 20.40254992 89.96660278 20.40254992 93 18 C68.91 18 44.82 18 20 18 C26.6170474 27.04352902 26.6170474 27.04352902 36.25 30.6875 C38.1475 31.120625 40.045 31.55375 42 32 C42 37.61 42 43.22 42 49 C28.20541401 48.45547687 18.49359166 44.10724587 9 34 C0.68138847 23.711191 0 12.83916053 0 0 Z " fill="#D8DBDA" transform="translate(23,86)"/>
<path d="M0 0 C5.61 0 11.22 0 17 0 C17.21914063 1.38832031 17.43828125 2.77664063 17.6640625 4.20703125 C19.89634188 19.81179178 19.89634188 19.81179178 28 33 C28.13535156 31.83984375 28.27070312 30.6796875 28.41015625 29.484375 C29.79564454 18.98685327 31.50469859 8.30811099 40.22265625 1.18359375 C40.80917969 0.79300781 41.39570312 0.40242187 42 0 C45.34820898 1.46625856 47.69266359 3.33658447 50.3125 5.875 C51.03050781 6.55304687 51.74851563 7.23109375 52.48828125 7.9296875 C54 10 54 10 53.8515625 12.078125 C53 14 53 14 51.0625 16.875 C47.01376772 23.00944285 46.17149229 28.78773413 47 36 C48.82712631 43.75950476 52.50084275 48.49575781 59 53 C68.33940934 58.38812077 78.77924434 57.95527498 89.14453125 55.81640625 C97.79802826 53.34228741 105.31941154 49.31152893 112.09765625 43.41796875 C115.40592687 40.9520504 115.40592687 40.9520504 118 41 C120.1302685 42.75836408 121.8949842 44.42424794 123.75 46.4375 C124.25660156 46.96666016 124.76320313 47.49582031 125.28515625 48.04101562 C126.53495869 49.34977101 127.76902618 50.67351959 129 52 C114.21702305 66.98758563 95.94933516 74.81384501 74.828125 75.11328125 C54.73077102 75.00821051 36.45866257 66.67885364 21.375 53.75 C17.61002541 49.39055573 14.25343029 44.75074764 11 40 C10.58854736 39.40751465 10.17709473 38.8150293 9.75317383 38.20458984 C6.38168697 33.1305307 4.38302664 28.08404606 2.6875 22.25 C2.29860596 20.94144043 2.29860596 20.94144043 1.90185547 19.60644531 C0.01592769 12.89954481 -0.55131948 6.98338002 0 0 Z " fill="#D6DAD9" transform="translate(4,3)"/>
<path d="M0 0 C9.24 0 18.48 0 28 0 C28 0.66 28 1.32 28 2 C23.70868391 2.19619224 19.41693898 2.38048583 15.125 2.5625 C13.90167969 2.61857422 12.67835937 2.67464844 11.41796875 2.73242188 C9.66806641 2.80493164 9.66806641 2.80493164 7.8828125 2.87890625 C6.80402832 2.9260376 5.72524414 2.97316895 4.61376953 3.02172852 C2 3 2 3 0 2 C0 1.34 0 0.68 0 0 Z " fill="#F0F3F3" transform="translate(25,86)"/>
<path d="M0 0 C0.99 0.33 1.98 0.66 3 1 C1.36587557 2.70840281 0.13093906 3.93453047 -2 5 C-2.309375 6.155 -2.61875 7.31 -2.9375 8.5 C-3.4634375 10.2325 -3.4634375 10.2325 -4 12 C-4.99 12.33 -5.98 12.66 -7 13 C-7.99 14.485 -7.99 14.485 -9 16 C-9.66 15.67 -10.32 15.34 -11 15 C-9.92734574 13.05656742 -8.84143808 11.12044601 -7.75 9.1875 C-7.14671875 8.10855469 -6.5434375 7.02960937 -5.921875 5.91796875 C-4.11782181 3.17888799 -2.87401192 1.54621841 0 0 Z " fill="#B7BBBA" transform="translate(46,3)"/>
<path d="M0 0 C8.28937421 0.84880302 8.28937421 0.84880302 11.9375 1.625 C14.05416667 2.22291667 14.05416667 2.22291667 16 1 C16.33 2.32 16.66 3.64 17 5 C5.47835991 4.22095672 5.47835991 4.22095672 0 2 C0 1.34 0 0.68 0 0 Z " fill="#BEBFBF" transform="translate(48,130)"/>
<path d="M0 0 C0.33 0 0.66 0 1 0 C1.13277344 0.89203125 1.26554687 1.7840625 1.40234375 2.703125 C1.57894531 3.87359375 1.75554688 5.0440625 1.9375 6.25 C2.11152344 7.41015625 2.28554688 8.5703125 2.46484375 9.765625 C2.8727736 12.23106961 3.33901303 14.59424562 4 17 C1.625 17.1875 1.625 17.1875 -1 17 C-1.66 16.01 -2.32 15.02 -3 14 C-2.68289062 13.44828125 -2.36578125 12.8965625 -2.0390625 12.328125 C-0.87290025 9.71522011 -0.59954289 7.59420998 -0.375 4.75 C-0.30023438 3.85796875 -0.22546875 2.9659375 -0.1484375 2.046875 C-0.09945312 1.37140625 -0.05046875 0.6959375 0 0 Z " fill="#BCBDBC" transform="translate(49,29)"/>
<path d="M0 0 C1.32 0.33 2.64 0.66 4 1 C3.67 2.65 3.34 4.3 3 6 C2.030625 6.28875 1.06125 6.5775 0.0625 6.875 C-3.10664203 7.64214682 -3.10664203 7.64214682 -4 10 C-4.99 9.34 -5.98 8.68 -7 8 C-4.36 6.02 -1.72 4.04 1 2 C0.67 1.34 0.34 0.68 0 0 Z M-6 10 C-5.34 10 -4.68 10 -4 10 C-4.33 10.66 -4.66 11.32 -5 12 C-5.33 11.34 -5.66 10.68 -6 10 Z " fill="#C3C7C6" transform="translate(116,101)"/>
<path d="M0 0 C4.95 0 9.9 0 15 0 C14.67 0.66 14.34 1.32 14 2 C12.00390625 2.4140625 12.00390625 2.4140625 9.5625 2.625 C8.75941406 2.69976562 7.95632812 2.77453125 7.12890625 2.8515625 C5.75505053 2.94735428 4.3771912 3 3 3 C2.01 3.33 1.02 3.66 0 4 C0 2.68 0 1.36 0 0 Z " fill="#EBEEED" transform="translate(4,3)"/>
<path d="M0 0 C0.66 0 1.32 0 2 0 C2 0.66 2 1.32 2 2 C2.99 2.33 3.98 2.66 5 3 C4.54625 3.7425 4.0925 4.485 3.625 5.25 C2.32573985 7.44874794 1.14215318 9.71569364 0 12 C0 8.04 0 4.08 0 0 Z " fill="#ABAEAC" transform="translate(23,86)"/>
<path d="M0 0 C0.66 0.33 1.32 0.66 2 1 C0.68775452 4.93673644 -0.91910327 7.22719294 -4 10 C-4.99 9.67 -5.98 9.34 -7 9 C-4.69 6.03 -2.38 3.06 0 0 Z " fill="#D1D3D2" transform="translate(93,123)"/>
<path d="M0 0 C0.33 0.66 0.66 1.32 1 2 C2.65 1.67 4.3 1.34 6 1 C5.67 1.99 5.34 2.98 5 4 C3.56344146 4.08131463 2.1255517 4.13933559 0.6875 4.1875 C-0.51326172 4.23970703 -0.51326172 4.23970703 -1.73828125 4.29296875 C-4.47851584 3.93801608 -5.29171079 3.10633718 -7 1 C-4.69 1.33 -2.38 1.66 0 2 C0 1.34 0 0.68 0 0 Z " fill="#B7B8B8" transform="translate(78,74)"/>
<path d="M0 0 C0.99 0 1.98 0 3 0 C4.125 6.75 4.125 6.75 3 9 C2.01 9 1.02 9 0 9 C0 6.03 0 3.06 0 0 Z " fill="#E6E9E9" transform="translate(24,94)"/>
<path d="M0 0 C0.66 3.63 1.32 7.26 2 11 C1.01 11 0.02 11 -1 11 C-1.66 7.7 -2.32 4.4 -3 1 C-1 0 -1 0 0 0 Z " fill="#C3C7C5" transform="translate(7,12)"/>
<path d="M0 0 C1.32 0.66 2.64 1.32 4 2 C4 2.33 4 2.66 4 3 C-1.61 3 -7.22 3 -13 3 C-13 2.67 -13 2.34 -13 2 C-12.14535156 1.93941406 -11.29070312 1.87882812 -10.41015625 1.81640625 C-8.75306641 1.69072266 -8.75306641 1.69072266 -7.0625 1.5625 C-5.96035156 1.48128906 -4.85820313 1.40007812 -3.72265625 1.31640625 C-1.08890097 1.29581916 -1.08890097 1.29581916 0 0 Z " fill="#E2E7E6" transform="translate(104,99)"/>
<path d="M0 0 C0.66 0.33 1.32 0.66 2 1 C1.34 3.97 0.68 6.94 0 10 C-0.66 9.01 -1.32 8.02 -2 7 C-1.125 3.3125 -1.125 3.3125 0 0 Z " fill="#A9AAAA" transform="translate(94,150)"/>
<path d="M0 0 C0.66 0.33 1.32 0.66 2 1 C2 1.66 2 2.32 2 3 C0.03533587 4.06775224 -1.96855359 5.06553465 -4 6 C-4.66 5.67 -5.32 5.34 -6 5 C-4.06745228 2.9754262 -2.36841312 1.57894208 0 0 Z " fill="#B7B8B8" transform="translate(119,63)"/>
<path d="M0 0 C0.185625 0.9590625 0.185625 0.9590625 0.375 1.9375 C0.684375 2.9584375 0.684375 2.9584375 1 4 C1.66 4.33 2.32 4.66 3 5 C1.02 5.66 -0.96 6.32 -3 7 C-3 6.01 -3 5.02 -3 4 C-2.34 4 -1.68 4 -1 4 C-0.67 2.68 -0.34 1.36 0 0 Z " fill="#BABBBA" transform="translate(108,66)"/>
<path d="M0 0 C0.66 1.32 1.32 2.64 2 4 C0.02 4 -1.96 4 -4 4 C-4.33 3.34 -4.66 2.68 -5 2 C-3.35 1.34 -1.7 0.68 0 0 Z " fill="#989A9A" transform="translate(63,131)"/>
<path d="M0 0 C2.64 0.33 5.28 0.66 8 1 C8 1.33 8 1.66 8 2 C5.36 2.66 2.72 3.32 0 4 C0 2.68 0 1.36 0 0 Z " fill="#9FA2A0" transform="translate(54,116)"/>
<path d="M0 0 C0 0.66 0 1.32 0 2 C-0.99 2 -1.98 2 -3 2 C-3 2.66 -3 3.32 -3 4 C-4.32 3.67 -5.64 3.34 -7 3 C-4.49955934 -0.00052879 -4.2621484 0 0 0 Z " fill="#C8CAC9" transform="translate(104,116)"/>
<path d="M0 0 C3.16115776 1.36983503 3.9927092 1.9890638 6 5 C5.05125 4.814375 4.1025 4.62875 3.125 4.4375 C0.10131207 3.71313368 0.10131207 3.71313368 -2 5 C-1.34 3.35 -0.68 1.7 0 0 Z " fill="#EAECEB" transform="translate(120,44)"/>
</svg>
